<svg xmlns:mydata="http://www.w3.org/2000/svg" mydata:contrastcolor="ffffff" mydata:template="Default"
     mydata:presentation="2.5" mydata:layouttype="undefined" mydata:specialfontid="undefined" mydata:id1="788"
     mydata:id2="789" mydata:companyname="arehs" mydata:companytagline="as soon as possible" version="1.1"
     xmlns="http://www.w3.org/2000/svg" xmlns:xlink="http://www.w3.org/1999/xlink" viewBox="0 35 550 400">
    <g fill="#222223" fill-rule="nonzero" stroke="none" stroke-width="1" stroke-linecap="butt" stroke-linejoin="miter"
       stroke-miterlimit="10" stroke-dasharray="" stroke-dashoffset="0" font-family="none" font-weight="none"
       font-size="none" text-anchor="none" style="mix-blend-mode: normal">
        <g data-paper-data="{&quot;isGlobalGroup&quot;:true,&quot;bounds&quot;:{&quot;x&quot;:123.61896538551686,&quot;y&quot;:115,&quot;width&quot;:302.7620692289663,&quot;height&quot;:240}}">
            <g data-paper-data="{&quot;isSecondaryText&quot;:true}">
                <path d="M137.49791,354.57776h4.34906v-0.31668c-0.5278,0 -0.97115,-0.44335 -1.35116,-1.28783l-5.36243,-12.64605h-0.59113l-4.58129,12.68828c-0.33779,0.84448 -0.76003,1.26672 -1.33005,1.26672v0.31668h2.76566v-0.31668h-0.1689c-0.57002,0 -0.73892,-0.61225 -0.44335,-1.54117l1.0556,-3.04012h4.72908c0.42224,1.07671 0.8867,2.17453 1.30894,3.23013c0.33779,0.82337 0.23223,1.37228 -0.27446,1.37228h-0.14778zM136.33675,349.10977h-4.28572l1.96341,-5.658z"
                      data-paper-data="{&quot;glyphName&quot;:&quot;A&quot;,&quot;glyphIndex&quot;:0,&quot;firstGlyphOfWord&quot;:true,&quot;word&quot;:1}"></path>
                <path d="M155.51343,343.64177v-2.11119c-1.03449,-0.59113 -2.44899,-0.99226 -3.56792,-0.99226c-2.70233,0 -4.51796,1.68896 -4.51796,4.22239c0,1.5834 1.39339,3.08234 3.50458,3.75793c2.28009,0.71781 3.80015,1.98452 3.80015,3.14568c0,1.45672 -1.16116,2.42787 -2.89234,2.42787c-0.29557,0 -0.61225,-0.02111 -0.92893,-0.06334c-1.22449,-0.21112 -2.38565,-0.97115 -2.95567,-1.96341c-0.08445,-0.14778 -0.19001,-0.31668 -0.27446,-0.46446h-0.27446v2.11119c1.03449,0.59113 2.80789,0.99226 4.45462,0.99226c2.74455,0 4.56018,-1.60451 4.56018,-3.99016c0,-1.68896 -1.45672,-3.29346 -3.65237,-3.99016c-2.21675,-0.69669 -3.69459,-1.85785 -3.69459,-2.87122c0,-1.62562 1.11893,-2.72344 2.78678,-2.72344c0,0 0.8867,0.08445 0.86559,0.12667c0.80225,0.19001 1.64673,0.86559 2.11119,1.68896c0.12667,0.21112 0.29557,0.50669 0.42224,0.71781z"
                      data-paper-data="{&quot;glyphName&quot;:&quot;S&quot;,&quot;glyphIndex&quot;:1,&quot;lastGlyphOfWord&quot;:true,&quot;word&quot;:1}"></path>
                <path d="M180.6085,343.64177v-2.11119c-1.03449,-0.59113 -2.44899,-0.99226 -3.56792,-0.99226c-2.70233,0 -4.51796,1.68896 -4.51796,4.22239c0,1.5834 1.39339,3.08234 3.50458,3.75793c2.28009,0.71781 3.80015,1.98452 3.80015,3.14568c0,1.45672 -1.16116,2.42787 -2.89234,2.42787c-0.29557,0 -0.61225,-0.02111 -0.92893,-0.06334c-1.22449,-0.21112 -2.38565,-0.97115 -2.95567,-1.96341c-0.08445,-0.14778 -0.19001,-0.31668 -0.27446,-0.46446h-0.27446v2.11119c1.03449,0.59113 2.80789,0.99226 4.45462,0.99226c2.74455,0 4.56018,-1.60451 4.56018,-3.99016c0,-1.68896 -1.45672,-3.29346 -3.65237,-3.99016c-2.21675,-0.69669 -3.69459,-1.85785 -3.69459,-2.87122c0,-1.62562 1.11893,-2.72344 2.78678,-2.72344c0,0 0.8867,0.08445 0.86559,0.12667c0.80225,0.19001 1.64673,0.86559 2.11119,1.68896c0.12667,0.21112 0.29557,0.50669 0.42224,0.71781z"
                      data-paper-data="{&quot;glyphName&quot;:&quot;S&quot;,&quot;glyphIndex&quot;:2,&quot;firstGlyphOfWord&quot;:true,&quot;word&quot;:2}"></path>
                <path d="M190.51704,347.61082c0,-3.50458 1.49895,-6.48137 4.4124,-6.48137c2.89234,0 4.39128,2.97678 4.39128,6.48137c0,3.50458 -1.49895,6.48137 -4.39128,6.48137c-2.91345,0 -4.4124,-2.97678 -4.4124,-6.48137zM187.92027,347.61082c0,3.82126 2.38565,7.0725 7.00917,7.0725c4.6024,0 6.98805,-3.25124 6.98805,-7.0725c0,-3.82126 -2.38565,-7.0725 -6.98805,-7.0725c-4.62352,0 -7.00917,3.25124 -7.00917,7.0725z"
                      data-paper-data="{&quot;glyphName&quot;:&quot;O&quot;,&quot;glyphIndex&quot;:3,&quot;word&quot;:2}"></path>
                <path d="M211.04488,347.61082c0,-3.50458 1.49895,-6.48137 4.4124,-6.48137c2.89234,0 4.39128,2.97678 4.39128,6.48137c0,3.50458 -1.49895,6.48137 -4.39128,6.48137c-2.91345,0 -4.4124,-2.97678 -4.4124,-6.48137zM208.44812,347.61082c0,3.82126 2.38565,7.0725 7.00917,7.0725c4.6024,0 6.98805,-3.25124 6.98805,-7.0725c0,-3.82126 -2.38565,-7.0725 -6.98805,-7.0725c-4.62352,0 -7.00917,3.25124 -7.00917,7.0725z"
                      data-paper-data="{&quot;glyphName&quot;:&quot;O&quot;,&quot;glyphIndex&quot;:4,&quot;word&quot;:2}"></path>
                <path d="M228.82818,340.96056c0.54891,0 0.84448,0.44335 0.84448,1.37228v10.55597c0,0.92893 -0.29557,1.37228 -0.84448,1.37228v0.31668h2.38565v-0.31668c-0.54891,0 -0.84448,-0.44335 -0.84448,-1.37228v-10.17596c2.93456,4.09572 5.86912,8.19143 8.80368,12.28715h0.80225v-12.66717c0,-0.92893 0.29557,-1.37228 0.84448,-1.37228v-0.31668h-2.38565v0.31668c0.54891,0 0.84448,0.44335 0.84448,1.37228v8.8459l-7.53696,-10.53486h-2.93456z"
                      data-paper-data="{&quot;glyphName&quot;:&quot;N&quot;,&quot;glyphIndex&quot;:5,&quot;lastGlyphOfWord&quot;:true,&quot;word&quot;:2}"></path>
                <path d="M264.77478,354.57776h4.34906v-0.31668c-0.5278,0 -0.97115,-0.44335 -1.35116,-1.28783l-5.36243,-12.64605h-0.59113l-4.58129,12.68828c-0.33779,0.84448 -0.76003,1.26672 -1.33005,1.26672v0.31668h2.76566v-0.31668h-0.1689c-0.57002,0 -0.73892,-0.61225 -0.44335,-1.54117l1.0556,-3.04012h4.72908c0.42224,1.07671 0.8867,2.17453 1.30894,3.23013c0.33779,0.82337 0.23223,1.37228 -0.27446,1.37228h-0.14778zM263.61362,349.10977h-4.28572l1.96341,-5.658z"
                      data-paper-data="{&quot;glyphName&quot;:&quot;A&quot;,&quot;glyphIndex&quot;:6,&quot;firstGlyphOfWord&quot;:true,&quot;word&quot;:3}"></path>
                <path d="M282.79031,343.64177v-2.11119c-1.03449,-0.59113 -2.44899,-0.99226 -3.56792,-0.99226c-2.70233,0 -4.51796,1.68896 -4.51796,4.22239c0,1.5834 1.39339,3.08234 3.50458,3.75793c2.28009,0.71781 3.80015,1.98452 3.80015,3.14568c0,1.45672 -1.16116,2.42787 -2.89234,2.42787c-0.29557,0 -0.61225,-0.02111 -0.92893,-0.06334c-1.22449,-0.21112 -2.38565,-0.97115 -2.95567,-1.96341c-0.08445,-0.14778 -0.19001,-0.31668 -0.27446,-0.46446h-0.27446v2.11119c1.03449,0.59113 2.80789,0.99226 4.45462,0.99226c2.74455,0 4.56018,-1.60451 4.56018,-3.99016c0,-1.68896 -1.45672,-3.29346 -3.65237,-3.99016c-2.21675,-0.69669 -3.69459,-1.85785 -3.69459,-2.87122c0,-1.62562 1.11893,-2.72344 2.78678,-2.72344c0,0 0.8867,0.08445 0.86559,0.12667c0.80225,0.19001 1.64673,0.86559 2.11119,1.68896c0.12667,0.21112 0.29557,0.50669 0.42224,0.71781z"
                      data-paper-data="{&quot;glyphName&quot;:&quot;S&quot;,&quot;glyphIndex&quot;:7,&quot;lastGlyphOfWord&quot;:true,&quot;word&quot;:3}"></path>
                <path d="M303.74743,354.26108c-0.54891,0 -0.84448,-0.44335 -0.84448,-1.37228v-4.51796h2.02675c3.31458,0 5.51022,-1.56228 5.51022,-3.8846c0,-2.3012 -2.00563,-3.84237 -5.00353,-3.84237h-5.72134v0.31668c0.54891,0 0.84448,0.44335 0.84448,1.37228v10.55597c0,0.92893 -0.29557,1.37228 -0.84448,1.37228v0.31668h4.03238zM302.90295,347.77972v-6.5447h2.53343c1.52006,0 2.53343,1.30894 2.53343,3.25124c0,1.98452 -1.22449,3.29346 -3.04012,3.29346z"
                      data-paper-data="{&quot;glyphName&quot;:&quot;P&quot;,&quot;glyphIndex&quot;:8,&quot;firstGlyphOfWord&quot;:true,&quot;word&quot;:4}"></path>
                <path d="M318.93396,347.61082c0,-3.50458 1.49895,-6.48137 4.4124,-6.48137c2.89234,0 4.39128,2.97678 4.39128,6.48137c0,3.50458 -1.49895,6.48137 -4.39128,6.48137c-2.91345,0 -4.4124,-2.97678 -4.4124,-6.48137zM316.33719,347.61082c0,3.82126 2.38565,7.0725 7.00917,7.0725c4.6024,0 6.98805,-3.25124 6.98805,-7.0725c0,-3.82126 -2.38565,-7.0725 -6.98805,-7.0725c-4.62352,0 -7.00917,3.25124 -7.00917,7.0725z"
                      data-paper-data="{&quot;glyphName&quot;:&quot;O&quot;,&quot;glyphIndex&quot;:9,&quot;word&quot;:4}"></path>
                <path d="M344.86646,343.64177v-2.11119c-1.03449,-0.59113 -2.44899,-0.99226 -3.56792,-0.99226c-2.70233,0 -4.51796,1.68896 -4.51796,4.22239c0,1.5834 1.39339,3.08234 3.50458,3.75793c2.28009,0.71781 3.80015,1.98452 3.80015,3.14568c0,1.45672 -1.16116,2.42787 -2.89234,2.42787c-0.29557,0 -0.61225,-0.02111 -0.92893,-0.06334c-1.22449,-0.21112 -2.38565,-0.97115 -2.95567,-1.96341c-0.08445,-0.14778 -0.19001,-0.31668 -0.27446,-0.46446h-0.27446v2.11119c1.03449,0.59113 2.80789,0.99226 4.45462,0.99226c2.74455,0 4.56018,-1.60451 4.56018,-3.99016c0,-1.68896 -1.45672,-3.29346 -3.65237,-3.99016c-2.21675,-0.69669 -3.69459,-1.85785 -3.69459,-2.87122c0,-1.62562 1.11893,-2.72344 2.78678,-2.72344c0,0 0.8867,0.08445 0.86559,0.12667c0.80225,0.19001 1.64673,0.86559 2.11119,1.68896c0.12667,0.21112 0.29557,0.50669 0.42224,0.71781z"
                      data-paper-data="{&quot;glyphName&quot;:&quot;S&quot;,&quot;glyphIndex&quot;:10,&quot;word&quot;:4}"></path>
                <path d="M360.17966,343.64177v-2.11119c-1.03449,-0.59113 -2.44899,-0.99226 -3.56792,-0.99226c-2.70233,0 -4.51796,1.68896 -4.51796,4.22239c0,1.5834 1.39339,3.08234 3.50458,3.75793c2.28009,0.71781 3.80015,1.98452 3.80015,3.14568c0,1.45672 -1.16116,2.42787 -2.89234,2.42787c-0.29557,0 -0.61225,-0.02111 -0.92893,-0.06334c-1.22449,-0.21112 -2.38565,-0.97115 -2.95567,-1.96341c-0.08445,-0.14778 -0.19001,-0.31668 -0.27446,-0.46446h-0.27446v2.11119c1.03449,0.59113 2.80789,0.99226 4.45462,0.99226c2.74455,0 4.56018,-1.60451 4.56018,-3.99016c0,-1.68896 -1.45672,-3.29346 -3.65237,-3.99016c-2.21675,-0.69669 -3.69459,-1.85785 -3.69459,-2.87122c0,-1.62562 1.11893,-2.72344 2.78678,-2.72344c0,0 0.8867,0.08445 0.86559,0.12667c0.80225,0.19001 1.64673,0.86559 2.11119,1.68896c0.12667,0.21112 0.29557,0.50669 0.42224,0.71781z"
                      data-paper-data="{&quot;glyphName&quot;:&quot;S&quot;,&quot;glyphIndex&quot;:11,&quot;word&quot;:4}"></path>
                <path d="M371.39714,354.26108c-0.54891,0 -0.84448,-0.44335 -0.84448,-1.37228v-10.55597c0,-0.92893 0.29557,-1.37228 0.84448,-1.37228v-0.31668h-4.03238v0.31668c0.54891,0 0.84448,0.44335 0.84448,1.37228v10.55597c0,0.92893 -0.29557,1.37228 -0.84448,1.37228v0.31668h4.03238z"
                      data-paper-data="{&quot;glyphName&quot;:&quot;I&quot;,&quot;glyphIndex&quot;:12,&quot;word&quot;:4}"></path>
                <path d="M377.54775,340.96056c0.54891,0 0.84448,0.44335 0.84448,1.37228v10.55597c0,0.92893 -0.29557,1.37228 -0.84448,1.37228v0.31668h6.22802c3.29346,0 5.48911,-1.54117 5.48911,-3.86349c0,-1.90007 -1.75229,-3.27235 -4.49684,-3.63125c2.04786,-0.44335 3.31458,-1.5834 3.31458,-3.12457c0,-1.98452 -1.9423,-3.29346 -4.83464,-3.29346h-5.70022zM380.73565,346.93524v-5.67911h2.51232c1.49895,0 2.49121,1.07671 2.49121,2.70233c0,1.79452 -1.20338,2.97678 -2.9979,2.97678zM380.73565,347.46304h1.81563c2.55455,0 4.2435,1.30894 4.2435,3.27235c0,1.96341 -1.30894,3.27235 -3.27235,3.27235h-2.78678z"
                      data-paper-data="{&quot;glyphName&quot;:&quot;B&quot;,&quot;glyphIndex&quot;:13,&quot;word&quot;:4}"></path>
                <path d="M399.06786,340.64388h-4.03238v0.31668c0.54891,0 0.84448,0.44335 0.84448,1.37228v10.55597c0,0.92893 -0.29557,1.37228 -0.84448,1.37228v0.31668h9.50037l0.06334,-0.29557c0.08445,-0.57002 0.23223,-1.35116 0.33779,-1.92119c-0.02111,0.02111 -0.06334,0.02111 -0.08445,0c-0.19001,-0.04222 -0.31668,-0.08445 -0.31668,-0.08445l-0.1689,0.25334c-0.5278,0.86559 -1.64673,1.45672 -2.78678,1.45672h-3.3568v-11.65379c0,-0.92893 0.29557,-1.37228 0.84448,-1.37228z"
                      data-paper-data="{&quot;glyphName&quot;:&quot;L&quot;,&quot;glyphIndex&quot;:14,&quot;word&quot;:4}"></path>
                <path d="M419.53237,348.41307v-2.40676h-0.25334l-0.08445,0.12667c-0.23223,0.42224 -1.11893,0.71781 -2.19564,0.71781h-2.32231v-5.61578h3.01901c1.26672,0 2.40676,0.5278 2.89234,1.30894l0.14778,0.23223h0.23223v-2.13231h-9.47926v0.31668c0.54891,0 0.84448,0.44335 0.84448,1.37228v10.55597c0,0.92893 -0.29557,1.37228 -0.84448,1.37228v0.31668h9.50037l0.06334,-0.29557c0.08445,-0.54891 0.21112,-1.28783 0.31668,-1.83674h-0.23223l-0.19001,0.23223c-0.63336,0.78114 -1.85785,1.30894 -3.12457,1.30894h-3.14568v-6.5447h2.32231c1.07671,0 1.9423,0.33779 2.19564,0.82337l0.08445,0.14778z"
                      data-paper-data="{&quot;glyphName&quot;:&quot;E&quot;,&quot;glyphIndex&quot;:15,&quot;lastGlyphOfWord&quot;:true,&quot;word&quot;:4}"></path>
            </g>
            <g data-paper-data="{&quot;isPrimaryText&quot;:true}">
                <path d="M123.71185,325.39097h13.83925v-1.39321h-0.74305c-2.4149,0 -3.06507,-2.50778 -1.9505,-6.3159l4.92269,-13.56061l18.01889,-0.09288l6.96606,14.86094c1.20745,3.06507 0.83593,5.01557 -1.11457,5.01557h-0.65017v1.39321h24.61343v-1.39321c-2.50778,0 -4.55116,-2.04338 -6.50166,-6.03726l-26.28528,-55.26412h-3.901l-21.54836,56.2858c-1.57897,3.34371 -3.34371,4.92269 -5.75861,4.92269zM155.94151,300.0345l-14.86094,-0.09288l6.40878,-17.74025z"
                      data-paper-data="{&quot;glyphName&quot;:&quot;A&quot;,&quot;glyphIndex&quot;:0,&quot;firstGlyphOfWord&quot;:true,&quot;word&quot;:1}"></path>
                <path d="M190.67895,265.48282c2.4149,0 3.71523,1.9505 3.71523,6.03726v46.44043c0,4.08676 -1.30033,6.03726 -3.71523,6.03726v1.39321h22.84869v-1.39321c-2.4149,0 -3.71523,-1.9505 -3.71523,-6.03726v-21.3626h5.29421c2.69355,3.901 7.24471,10.58842 13.00332,18.9477c6.50166,9.47385 7.43047,9.84537 24.52055,9.84537h5.10845v-3.06507c-5.47997,0 -5.85149,-0.09288 -8.45216,-3.80812c-8.08064,-11.79587 -14.21077,-20.24803 -16.81144,-23.87038c8.91656,-2.69355 14.30365,-7.98775 14.30365,-14.86094c0,-9.47385 -10.58842,-15.78975 -26.56393,-15.78975h-29.44323zM218.17169,292.69691l-8.2664,-0.09288v-24.70631h10.30978c6.22302,0 10.30978,4.73692 10.30978,11.88875c0,7.70911 -4.92269,12.91044 -12.35316,12.91044z"
                      data-paper-data="{&quot;glyphName&quot;:&quot;R&quot;,&quot;glyphIndex&quot;:1,&quot;word&quot;:1}"></path>
                <path d="M302.04311,298.91993v-11.88875h-1.11457l-0.37152,0.55729c-1.02169,1.85762 -4.92269,3.15795 -9.65961,3.15795h-10.2169v-22.75581h13.93213c5.57285,0 10.58842,2.32202 12.72468,5.75861l0.65017,1.02169h1.02169v-10.6813h-47.555v1.39321c2.4149,0 3.71523,1.9505 3.71523,6.03726v46.44043c0,4.08676 -1.30033,6.03726 -3.71523,6.03726v1.39321h47.18348l0.27864,-1.9505c0.4644,-2.60066 1.11457,-6.13014 1.57897,-8.7308h-1.02169l-0.83593,1.02169c-2.78643,3.43659 -8.17352,5.75861 -13.74637,5.75861h-14.21077v-26.84257h10.2169c4.73692,0 8.54504,1.48609 9.65961,3.62235l0.37152,0.65017z"
                      data-paper-data="{&quot;glyphName&quot;:&quot;E&quot;,&quot;glyphIndex&quot;:2,&quot;word&quot;:1}"></path>
                <path d="M378.66982,323.99776c-2.4149,0 -3.71523,-1.9505 -3.71523,-6.03726v-46.44043c0,-4.08676 1.30033,-6.03726 3.71523,-6.03726v-1.39321h-17.74025v1.39321c2.4149,0 3.71523,1.9505 3.71523,6.03726v20.34091h-30.74357v-20.34091c0,-4.08676 1.30033,-6.03726 3.71523,-6.03726v-1.39321h-17.74025v1.39321c2.4149,0 3.71523,1.9505 3.71523,6.03726v46.44043c0,4.08676 -1.30033,6.03726 -3.71523,6.03726v1.39321h17.74025v-1.39321c-2.4149,0 -3.71523,-1.9505 -3.71523,-6.03726v-23.49886h30.74357v23.49886c0,4.08676 -1.30033,6.03726 -3.71523,6.03726v1.39321h17.74025z"
                      data-paper-data="{&quot;glyphName&quot;:&quot;H&quot;,&quot;glyphIndex&quot;:3,&quot;fontStyleEffect&quot;:true,&quot;word&quot;:1}"></path>
                <path d="M422.39311,277.25834v-9.27424c-4.54438,-2.59679 -10.75812,-4.35889 -15.67347,-4.35889c-11.87103,0 -19.84688,7.4194 -19.84688,18.54849c0,6.95568 6.121,13.5404 15.39525,16.50816c10.01618,3.15324 16.69364,8.71779 16.69364,13.81862c0,6.39923 -5.10083,10.66538 -12.70571,10.66538c-1.29839,0 -2.68953,-0.09274 -4.08067,-0.27823c-5.37906,-0.92742 -10.4799,-4.26615 -12.98394,-8.62505c-0.37097,-0.6492 -0.83468,-1.39114 -1.20565,-2.04033h-1.20565v9.27424c4.54438,2.59679 12.33475,4.35889 19.56866,4.35889c12.05652,0 20.03237,-7.04843 20.03237,-17.52832c0,-7.4194 -6.39923,-14.46782 -16.04444,-17.52832c-9.73796,-3.0605 -16.22993,-8.16134 -16.22993,-12.61297c0,-7.14117 4.91535,-11.96378 12.242,-11.96378c0,0 3.89518,0.37097 3.80244,0.55645c3.52421,0.83468 7.23391,3.80244 9.27424,7.4194c0.55645,0.92742 1.29839,2.22582 1.85485,3.15324z"
                      data-paper-data="{&quot;glyphName&quot;:&quot;S&quot;,&quot;glyphIndex&quot;:4,&quot;lastGlyphOfWord&quot;:true,&quot;fontStyleEffect&quot;:true,&quot;word&quot;:1}"></path>
            </g>
            <g data-paper-data="{&quot;isIcon&quot;:&quot;true&quot;,&quot;iconType&quot;:&quot;icon&quot;,&quot;rawIconId&quot;:&quot;962565ef-dc70-4b99-b5ff-40843fbfaf71&quot;,&quot;selectedEffects&quot;:{&quot;container&quot;:&quot;&quot;,&quot;transformation&quot;:&quot;&quot;,&quot;pattern&quot;:&quot;&quot;},&quot;combineTerms&quot;:&quot;undefined&quot;,&quot;isDetailed&quot;:false,&quot;fillRule&quot;:&quot;nonzero&quot;,&quot;bounds&quot;:{&quot;x&quot;:182.37564890217573,&quot;y&quot;:115,&quot;width&quot;:185.2487021956486,&quot;height&quot;:120.1006331186203},&quot;iconStyle&quot;:&quot;standalone&quot;,&quot;suitableAsStandaloneIcon&quot;:true}">
                <path d="M345.67791,223.34977l21.94644,6.22104l-24.02012,-11.92365l-61.34635,-28.85871h-13.1333l2.24648,-5.01139l-25.40257,-11.92365l-3.28333,7.25788l33.87009,16.07102l-1.03684,2.07368l-92.45154,-43.72007l-0.69123,1.38246l33.00607,15.55259l-1.38246,2.93771l77.93579,38.36307l17.62628,0.17281l4.49298,10.71401l25.40257,12.44208h11.23243zM276.55526,172.19901l8.46752,-19.35434l12.09646,29.03151l38.70868,18.14469l-5.357,-12.78769l-25.57538,-11.05963l0.86404,-2.07368l23.3289,10.02279v-0.17281l1.38246,0.69123l10.71401,5.18419l5.87542,2.93771l1.03684,-2.07368l-20.39119,-9.84998l-27.82186,-65.83932h-25.74819c-0.51842,0 -1.90087,0.17281 -2.93771,1.55526l-3.11052,6.73946l-13.99734,30.75958l-20.56399,-1.90087zM315.26394,225.76906l2.7649,6.39385c0,0.17281 0,0.17281 0,0.34561c0.34561,0.86404 0.69123,1.38246 1.03684,1.72806l1.03684,0.86404h14.17015zM238.5378,188.09722l-0.17281,0.34561l-10.3684,22.63767v0l-7.43069,16.41663v0l-1.38246,3.11052v0l-2.07368,4.49298h30.75958l0.86404,-0.86404c0.51842,-0.51842 0.86404,-1.03684 1.03684,-1.72806l9.33156,-21.0824l21.77363,0.17281l21.25521,9.67717l0.86404,-1.55526z"
                      data-paper-data="{&quot;isPathIcon&quot;:true}"></path>
            </g>
        </g>
    </g>
</svg>